<?xml version="1.0" encoding="UTF-8"?><svg id="a" xmlns="http://www.w3.org/2000/svg" viewBox="0 0 32 32"><circle cx="16.05" cy="16.04" r="14.17" fill="#d88d6c"/><path d="M28.11,14.65c0,6.49-4.23,11.75-12.06,11.75S4,21.14,4,14.65,8.22,2.89,16.05,2.89s12.06,5.26,12.06,11.75Z" fill="#ffa77b" fill-rule="evenodd"/><path d="M16.05,1.88C8.22,1.88,1.88,8.22,1.88,16.04s6.34,14.17,14.17,14.17,14.17-6.34,14.17-14.17S23.87,1.88,16.05,1.88Zm9.32,6.46s.02,.02,.02,.02h0c1.53,1.86,2.47,4.14,2.7,6.54,.02,.17-.1,.31-.27,.33-.02,0-.04,0-.06,0-1.24-.17-5.22-.91-7.03-2.19-.13-.1-.15-.29-.05-.42,0-.01,.02-.02,.03-.03l4.25-4.25c.12-.12,.31-.12,.42,0Zm-8.24-4.32s.05,0,.07,0c2.4,.22,4.67,1.16,6.53,2.69,.13,.11,.14,.3,.03,.43l-.02,.02-4.25,4.26c-.12,.12-.31,.12-.42,0,0,0-.02-.02-.02-.03-1.25-1.78-1.97-5.79-2.17-7.02-.02-.16,.09-.32,.25-.34Zm-8.76,2.7c1.83-1.51,4.06-2.44,6.41-2.69,.01,0,.02,0,.03,0,.17,0,.3,.14,.29,.31-.08,3.81,2.22,7.45,2.81,8.32,.08,.12,.06,.27-.04,.37l-1.62,1.62c-.12,.11-.3,.11-.42,0l-7.49-7.49h-.02c-.11-.14-.09-.34,.03-.45Zm-1.66,1.66h0l.02-.02c.12-.12,.31-.12,.43,0l7.49,7.49c.11,.12,.11,.3,0,.42l-1.6,1.6c-.11,.11-.28,.12-.4,.02-2.3-1.96-5.27-2.96-8.29-2.78-.02,0-.03,0-.05,0-.17-.01-.29-.16-.28-.32,.24-2.35,1.18-4.58,2.68-6.41Zm.02,15.37l-.02-.02c-1.54-1.87-2.49-4.17-2.7-6.59-.02-.17,.11-.31,.27-.33h.02c2.55-.09,5.05,.7,7.09,2.23,.13,.11,.15,.3,.04,.44l-.02,.02-4.25,4.25c-.12,.12-.31,.12-.43,0Zm8.25,4.33s-.03,0-.05,0c-2.4-.22-4.69-1.16-6.55-2.69-.13-.1-.15-.29-.04-.42,0,0,.01-.02,.02-.02l4.23-4.23c.12-.12,.31-.12,.43,0,.01,.01,.03,.03,.04,.04h0c1.23,2.15,1.98,4.53,2.2,7,.01,.17-.11,.31-.28,.32Zm8.75-2.69c-1.84,1.51-4.09,2.45-6.46,2.68-.16,.01-.31-.1-.33-.27-.17-1.27-1.1-6.23-2.71-8.33h0c-.09-.11-.08-.27,.02-.38l1.59-1.64h0c.12-.12,.3-.12,.42,0l7.49,7.49,.02,.02c.11,.13,.09,.32-.03,.43Zm1.66-1.66l-.02,.02c-.12,.12-.31,.12-.43,0l-7.49-7.49c-.11-.12-.11-.3,0-.42l1.61-1.62c.1-.11,.26-.12,.38-.03,2.39,1.81,5.31,2.79,8.31,2.79,.01,0,.02,0,.04,0,.17,.01,.29,.16,.27,.32-.24,2.36-1.18,4.59-2.68,6.42Z" fill-rule="evenodd"/></svg>