<?xml version="1.0" encoding="UTF-8"?><svg id="a" xmlns="http://www.w3.org/2000/svg" viewBox="0 0 32 32"><path d="M10.04,27.54c3.67,1.54,8.29-.02,9.07-1.28,1.25-2.02-4.47-2.2-3.28-3.01,.25-.17,2.44-.22,4.05-.69,3.1-.91,3.91-3.79,.7-4.22,0,0-1.33-.65,.16-1.1,6.67-1.97,5.8-4.71,2.85-5.28-1.28-.25-1.87,.35,.15-2.89,1.42-2.27,1.13-6.32-1.15-4.46-2.35,1.93-2.9,3.21-3.62,3.19-1.91-.07-.25-3.67-3.01-2.62-1.88,.71-2.8,9.11-3.71,5.43-.92-3.72-3.87-2.19-2.77,3.05,1.16,5.58-.35,5.07-.82,3.77-2.66-7.41-5.18,7.35,1.37,10.11Z" fill="#a8c172"/><path d="M10.04,25.85c3.67,1.54,8.29-.02,9.07-1.28,1.25-2.02-4.45-.64-3.26-1.45,.66-.74,2.42-1.78,4.03-2.25,3.1-.91,3.47-2.44,.26-2.87,0,0-1.4-1.16,.6-2.45,6.67-1.97,5.19-3.09,2.25-3.66-1.03,0-1.27-1.28,.75-4.51,1.42-2.27,.12-4.9-2.16-3.04-2.35,1.93-1.89,1.8-2.61,1.77-1.91-.07-.25-3.67-3.01-2.62-1.88,.71-2.8,9.11-3.71,5.43-.92-3.72-4.19,.13-3.09,5.37,1.16,5.58-.03,2.76-.5,1.45-2.66-7.41-5.18,7.35,1.37,10.11Z" fill="#c6ea84"/><path d="M23.63,4.14c1.3,0,1.28,3.07,.12,4.93-2.02,3.24-1.43,2.64-.15,2.89,2.94,.57,3.82,3.31-2.85,5.28-1.49,.44-.16,1.1-.16,1.1,3.21,.43,2.4,3.31-.7,4.22-1.61,.47-3.8,.53-4.05,.69-1.19,.81,4.53,.99,3.28,3.01-.55,.89-3,1.92-5.68,1.92-1.13,0-2.31-.18-3.4-.64-5.26-2.22-4.67-12.17-2.86-12.17,.44,0,.96,.6,1.49,2.06,.17,.48,.49,.85,.76,.85,.46,0,.8-1.1,.06-4.62-.68-3.28,.21-5.1,1.21-5.1,.6,0,1.22,.66,1.57,2.05,.16,.66,.32,.93,.49,.93,.78,0,1.67-5.77,3.22-6.36,.35-.13,.63-.19,.86-.19,1.54,0,.49,2.75,2.15,2.81h.02c.71,0,1.27-1.28,3.6-3.19,.41-.33,.75-.48,1.03-.48m0-2.21c-.82,0-1.64,.33-2.43,.98-.68,.56-1.23,1.08-1.68,1.52-.56-1.09-1.46-1.64-2.7-1.64h0c-.51,0-1.05,.11-1.64,.34-1.41,.53-2.2,2.03-2.84,3.72-.69-.43-1.35-.49-1.66-.49h0c-.96,0-1.85,.44-2.5,1.25-1.01,1.24-1.37,3.19-1.03,5.56-.78,0-2.6,.38-3.25,3.58-.8,3.95,.33,10.76,5.27,12.84,1.29,.54,2.72,.82,4.25,.82,2.77,0,6.36-1.04,7.55-2.97,.54-.87,.66-1.83,.33-2.72-.03-.09-.07-.18-.11-.27,2.31-.92,3.77-2.8,3.62-4.75-.04-.48-.18-.99-.45-1.47,3.05-1.51,3.71-3.27,3.65-4.62-.07-1.43-.97-2.61-2.43-3.3l.03-.05c1.14-1.82,1.69-4.83,.65-6.71-.56-1.01-1.54-1.61-2.64-1.61h0Z"/></svg>