<?xml version="1.0" encoding="UTF-8"?><svg id="a" xmlns="http://www.w3.org/2000/svg" viewBox="0 0 32 32"><g><path d="M10.55,19.64h.08c1.61-.31,2.57-2.07,2.28-3.68-.02-.09-1.14-7.01-1.14-7.01-.15-1.78-1.72-3.11-3.51-2.95-.18,.01-.35,.04-.52,.09-1.78,.27-3,1.92-2.74,3.7,.03,.18,.07,.36,.12,.53l1.81,6.62c.21,1.47,1.47,2.56,2.95,2.57,.22-.01,.45,.17,.66,.13Z" fill="#9c93aa"/><path d="M13.48,20.95c-1.52-.99-3.56-.56-4.55,.97s-.56,3.56,.97,4.55c.53,.35,1.15,.53,1.79,.53,.23,0,.46-.02,.69-.07,1.78-.38,2.91-2.12,2.53-3.9-.18-.85-.69-1.6-1.43-2.07Z" fill="#9c93aa"/><path d="M19.19,20.03h0c-1.81-.19-3.42,1.12-3.61,2.93-.19,1.81,1.12,3.42,2.93,3.61h.05c1.81,.16,3.4-1.18,3.56-2.99,.15-1.78-1.15-3.36-2.92-3.55Z" fill="#9c93aa"/><path d="M25.61,7.03h0c-1.18-1.09-2.7-1.75-4.3-1.88-2.16-.31-4.32,.54-5.68,2.24-.49,.56-.82,1.25-.93,1.99-.08,.73,.14,1.46,.6,2.03,.47,.58,1.16,.95,1.91,1.02,1.12,.13,2.22-.38,2.83-1.32,.82-1.52,1.27-1.45,1.67-1.16,.5,.37-1.26,2.12-2.28,2.62-1.02,.51-2.42,1.74-2.5,3.23-.06,1.52,.9,3.1,3.29,2.93,2.39-.18,2.89-2.7,4.54-3.88,1.65-1.17,2.21-2.34,2.35-3.88,.14-1.48-.42-2.93-1.5-3.95Z" fill="#9c93aa"/></g><g><path d="M10.54,18.2h0c1.61-.31,2.67-1.86,2.37-3.48-.02-.09-1.14-7.01-1.14-7.01-.15-1.78-1.72-3.11-3.51-2.95-.18,.01-.35,.04-.52,.09-1.78,.27-3,1.92-2.74,3.7,.03,.18,.07,.36,.12,.53l1.81,6.62c.21,1.47,1.47,2.56,2.95,2.57,.22-.01,.43-.04,.65-.07Z" fill="#c9bddb"/><path d="M13.48,19.72c-1.28-.36-3.56-.56-4.55,.97s-.56,3.56,.97,4.55c.53,.35,1.15,.53,1.79,.53,.23,0,.46-.02,.69-.07,1.78-.38,2.91-2.12,2.53-3.9-.18-.85-.59-1.84-1.43-2.07Z" fill="#c9bddb"/><path d="M19.19,18.8h0c-1.81-.19-3.42,1.12-3.61,2.93-.19,1.81,1.12,3.42,2.93,3.61h.05c1.81,.16,3.4-1.18,3.56-2.99,.15-1.78-1.15-3.36-2.92-3.55Z" fill="#c9bddb"/><path d="M25.61,5.8h0c-1.18-1.09-2.7-1.75-4.3-1.88-2.16-.31-4.32,.54-5.68,2.24-.49,.56-.82,1.25-.93,1.99-.08,.73,.14,1.46,.6,2.03,.47,.58,1.16,.95,1.91,1.02,1.12,.13,2.22-.38,2.83-1.32,.59-.7,1.1-.45,1.22-.4,1.55,.67-.61,2.1-1.63,2.61-1.02,.51-2.63,.99-2.7,2.49-.06,1.52,.9,3.1,3.29,2.93,2.39-.18,2.89-2.7,4.54-3.88,1.65-1.17,2.43-2.53,2.25-4.15-.16-1.47-.31-2.66-1.4-3.68Z" fill="#c9bddb"/></g><path d="M27.57,6.26v-.09l-.63-.58c-1.48-1.37-3.41-2.21-5.42-2.38-.36-.05-.73-.07-1.1-.07-2.46,0-4.75,1.09-6.31,3-.31,.35-.56,.75-.77,1.16-.78-1.91-2.65-3.27-4.8-3.27-.15,0-.3,0-.45,.02-.25,.02-.51,.06-.77,.13-2.78,.49-4.68,3.11-4.26,5.91,.04,.26,.1,.54,.18,.8l1.77,6.47c.25,1.45,1.13,2.67,2.34,3.4-.02,.03-.05,.06-.07,.1-.76,1.18-1.02,2.58-.73,3.95,.29,1.37,1.1,2.55,2.28,3.31,.85,.55,1.84,.85,2.86,.85,.37,0,.73-.04,1.09-.11,1.05-.22,1.98-.75,2.71-1.51,.79,.67,1.77,1.08,2.82,1.19h.09c.14,.02,.29,.03,.44,.03,2.74,0,4.99-2.06,5.23-4.8,.13-1.47-.39-2.85-1.3-3.9,.92-.62,1.54-1.46,2.05-2.16,.37-.51,.72-.99,1.07-1.24,1.99-1.41,2.97-3.05,3.17-5.3,.16-1.76-.39-3.53-1.49-4.89ZM6.94,16.94l-1.81-6.62c-.06-.17-.1-.35-.12-.53-.26-1.78,.96-3.43,2.74-3.7,.17-.05,.34-.08,.52-.09,1.78-.15,3.36,1.17,3.51,2.95,0,0,1.12,6.91,1.14,7.01,.3,1.61-.76,3.17-2.37,3.48h0c-.21,.04-.43,.06-.65,.07-1.48,0-2.74-1.1-2.95-2.57Zm5.43,9.98c-.23,.05-.46,.07-.69,.07-.64,0-1.26-.18-1.79-.53-1.52-.99-1.96-3.02-.97-4.55s3.02-1.96,4.55-.97c.73,.47,1.24,1.22,1.43,2.07,.38,1.78-.76,3.52-2.53,3.9Zm6.18-.34h-.05c-1.81-.19-3.12-1.81-2.93-3.61,.19-1.81,1.8-3.12,3.61-2.93h0c1.78,.19,3.08,1.77,2.92,3.55-.16,1.81-1.75,3.15-3.56,2.99Zm8.55-15.6c-.14,1.54-.7,2.71-2.35,3.88-1.65,1.17-2.15,3.7-4.54,3.88-2.39,.18-3.35-1.41-3.29-2.93,.08-1.49,1.48-2.73,2.5-3.23,1.03-.51,2.78-2.25,2.28-2.62-.4-.29-.85-.36-1.67,1.16-.62,.94-1.71,1.46-2.83,1.32-.75-.07-1.44-.43-1.91-1.02-.46-.57-.68-1.3-.6-2.03,.11-.74,.43-1.43,.93-1.99,1.37-1.7,3.53-2.55,5.68-2.24,1.6,.12,3.12,.78,4.3,1.87h0c1.08,1.01,1.64,2.47,1.5,3.95Z"/></svg>